<?xml version="1.0" encoding="UTF-8" standalone="no"?>
<svg
   viewBox="0 0 640 640"
   version="1.1"
   id="svg1"
   sodipodi:docname="door-open-solid-full.svg"
   inkscape:version="1.4 (86a8ad7, 2024-10-11)"
   inkscape:export-filename="door-open-solid-full.png"
   inkscape:export-xdpi="96"
   inkscape:export-ydpi="96"
   xmlns:inkscape="http://www.inkscape.org/namespaces/inkscape"
   xmlns:sodipodi="http://sodipodi.sourceforge.net/DTD/sodipodi-0.dtd"
   xmlns="http://www.w3.org/2000/svg"
   xmlns:svg="http://www.w3.org/2000/svg">
  <defs
     id="defs1" />
  <sodipodi:namedview
     id="namedview1"
     pagecolor="#ffffff"
     bordercolor="#000000"
     borderopacity="0.25"
     inkscape:showpageshadow="2"
     inkscape:pageopacity="0.0"
     inkscape:pagecheckerboard="0"
     inkscape:deskcolor="#d1d1d1"
     inkscape:zoom="1.2734375"
     inkscape:cx="320.39264"
     inkscape:cy="320"
     inkscape:window-width="1920"
     inkscape:window-height="1017"
     inkscape:window-x="-8"
     inkscape:window-y="-8"
     inkscape:window-maximized="1"
     inkscape:current-layer="svg1" />
  <!--!Font Awesome Free 7.1.0 by @fontawesome - https://fontawesome.com License - https://fontawesome.com/license/free Copyright 2026 Fonticons, Inc.-->
  <path
     d="M384 128L448 128L448 544C448 561.7 462.3 576 480 576L512 576C529.7 576 544 561.7 544 544C544 526.3 529.7 512 512 512L512 128C512 92.7 483.3 64 448 64L352 64L352 64L192 64C156.7 64 128 92.7 128 128L128 512C110.3 512 96 526.3 96 544C96 561.7 110.3 576 128 576L352 576C369.7 576 384 561.7 384 544L384 128zM256 320C256 302.3 270.3 288 288 288C305.7 288 320 302.3 320 320C320 337.7 305.7 352 288 352C270.3 352 256 337.7 256 320z"
     id="path1"
     style="fill:#ffffff;fill-opacity:1;stroke:none" />
</svg>
