<?xml version="1.0" encoding="UTF-8" standalone="no"?>
<svg
   viewBox="0 0 640 640"
   version="1.1"
   id="svg1"
   sodipodi:docname="eye-dropper-solid-full.svg"
   inkscape:export-filename="eye-dropper-solid-full.png"
   inkscape:export-xdpi="96"
   inkscape:export-ydpi="96"
   inkscape:version="1.4 (86a8ad7, 2024-10-11)"
   xmlns:inkscape="http://www.inkscape.org/namespaces/inkscape"
   xmlns:sodipodi="http://sodipodi.sourceforge.net/DTD/sodipodi-0.dtd"
   xmlns="http://www.w3.org/2000/svg"
   xmlns:svg="http://www.w3.org/2000/svg">
  <defs
     id="defs1" />
  <sodipodi:namedview
     id="namedview1"
     pagecolor="#ffffff"
     bordercolor="#000000"
     borderopacity="0.25"
     inkscape:showpageshadow="2"
     inkscape:pageopacity="0.0"
     inkscape:pagecheckerboard="0"
     inkscape:deskcolor="#d1d1d1"
     inkscape:zoom="1.2734375"
     inkscape:cx="320.39264"
     inkscape:cy="320"
     inkscape:window-width="1920"
     inkscape:window-height="1017"
     inkscape:window-x="-8"
     inkscape:window-y="-8"
     inkscape:window-maximized="1"
     inkscape:current-layer="svg1" />
  <!--!Font Awesome Free 7.1.0 by @fontawesome - https://fontawesome.com License - https://fontawesome.com/license/free Copyright 2026 Fonticons, Inc.-->
  <path
     d="M405.6 93.2L304 194.8L294.6 185.4C282.1 172.9 261.8 172.9 249.3 185.4C236.8 197.9 236.8 218.2 249.3 230.7L409.3 390.7C421.8 403.2 442.1 403.2 454.6 390.7C467.1 378.2 467.1 357.9 454.6 345.4L445.2 336L546.8 234.4C585.8 195.4 585.8 132.2 546.8 93.3C507.8 54.4 444.6 54.3 405.7 93.3zM119.4 387.3C104.4 402.3 96 422.7 96 443.9L96 486.3L69.4 526.2C60.9 538.9 62.6 555.8 73.4 566.6C84.2 577.4 101.1 579.1 113.8 570.6L153.7 544L196.1 544C217.3 544 237.7 535.6 252.7 520.6L362.1 411.2L316.8 365.9L207.4 475.3C204.4 478.3 200.3 480 196.1 480L160 480L160 443.9C160 439.7 161.7 435.6 164.7 432.6L274.1 323.2L228.8 277.9L119.4 387.3z"
     id="path1"
     style="fill:#ffffff;stroke:none" />
</svg>
