<?xml version="1.0" encoding="UTF-8" standalone="no"?>
<svg
   viewBox="0 0 640 640"
   version="1.1"
   id="svg1"
   sodipodi:docname="file-export-solid-full.svg"
   inkscape:export-filename="file-export-solid-full.png"
   inkscape:export-xdpi="96"
   inkscape:export-ydpi="96"
   inkscape:version="1.4 (86a8ad7, 2024-10-11)"
   xmlns:inkscape="http://www.inkscape.org/namespaces/inkscape"
   xmlns:sodipodi="http://sodipodi.sourceforge.net/DTD/sodipodi-0.dtd"
   xmlns="http://www.w3.org/2000/svg"
   xmlns:svg="http://www.w3.org/2000/svg">
  <defs
     id="defs1" />
  <sodipodi:namedview
     id="namedview1"
     pagecolor="#ffffff"
     bordercolor="#000000"
     borderopacity="0.25"
     inkscape:showpageshadow="2"
     inkscape:pageopacity="0.0"
     inkscape:pagecheckerboard="0"
     inkscape:deskcolor="#d1d1d1"
     inkscape:zoom="1.2734375"
     inkscape:cx="320.39264"
     inkscape:cy="320"
     inkscape:window-width="1920"
     inkscape:window-height="1017"
     inkscape:window-x="-8"
     inkscape:window-y="-8"
     inkscape:window-maximized="1"
     inkscape:current-layer="svg1" />
  <!--!Font Awesome Free 7.1.0 by @fontawesome - https://fontawesome.com License - https://fontawesome.com/license/free Copyright 2026 Fonticons, Inc.-->
  <path
     d="M128.5 64C93.2 64 64.5 92.7 64.5 128L64.5 512C64.5 547.3 93.2 576 128.5 576L384.5 576C419.8 576 448.5 547.3 448.5 512L448.5 416L526.6 416L495.6 447C486.2 456.4 486.2 471.6 495.6 480.9C505 490.2 520.2 490.3 529.5 480.9L601.5 408.9C610.9 399.5 610.9 384.3 601.5 375L529.5 303C520.1 293.6 504.9 293.6 495.6 303C486.3 312.4 486.2 327.6 495.6 336.9L526.6 367.9L448.5 367.9L448.5 234.4C448.5 217.4 441.8 201.1 429.8 189.1L323.2 82.7C311.2 70.7 295 64 278 64L128.5 64zM390 240L296.5 240C283.2 240 272.5 229.3 272.5 216L272.5 122.5L390 240zM256.5 392C256.5 378.7 267.2 368 280.5 368L384.5 368L384.5 416L280.5 416C267.2 416 256.5 405.3 256.5 392z"
     id="path1"
     style="fill:#ffffff;stroke:none" />
</svg>
