<?xml version="1.0" encoding="UTF-8" standalone="no"?>
<svg
   viewBox="0 0 640 640"
   version="1.1"
   id="svg1"
   sodipodi:docname="floppy-disk-solid-full.svg"
   inkscape:export-filename="floppy-disk-solid-full.png"
   inkscape:export-xdpi="96"
   inkscape:export-ydpi="96"
   inkscape:version="1.4 (86a8ad7, 2024-10-11)"
   xmlns:inkscape="http://www.inkscape.org/namespaces/inkscape"
   xmlns:sodipodi="http://sodipodi.sourceforge.net/DTD/sodipodi-0.dtd"
   xmlns="http://www.w3.org/2000/svg"
   xmlns:svg="http://www.w3.org/2000/svg">
  <defs
     id="defs1" />
  <sodipodi:namedview
     id="namedview1"
     pagecolor="#ffffff"
     bordercolor="#000000"
     borderopacity="0.25"
     inkscape:showpageshadow="2"
     inkscape:pageopacity="0.0"
     inkscape:pagecheckerboard="0"
     inkscape:deskcolor="#d1d1d1"
     inkscape:zoom="1.2734375"
     inkscape:cx="320.39264"
     inkscape:cy="320"
     inkscape:window-width="1920"
     inkscape:window-height="1017"
     inkscape:window-x="-8"
     inkscape:window-y="-8"
     inkscape:window-maximized="1"
     inkscape:current-layer="svg1" />
  <!--!Font Awesome Free 7.1.0 by @fontawesome - https://fontawesome.com License - https://fontawesome.com/license/free Copyright 2026 Fonticons, Inc.-->
  <path
     d="M160 96C124.7 96 96 124.7 96 160L96 480C96 515.3 124.7 544 160 544L480 544C515.3 544 544 515.3 544 480L544 237.3C544 220.3 537.3 204 525.3 192L448 114.7C436 102.7 419.7 96 402.7 96L160 96zM192 192C192 174.3 206.3 160 224 160L384 160C401.7 160 416 174.3 416 192L416 256C416 273.7 401.7 288 384 288L224 288C206.3 288 192 273.7 192 256L192 192zM320 352C355.3 352 384 380.7 384 416C384 451.3 355.3 480 320 480C284.7 480 256 451.3 256 416C256 380.7 284.7 352 320 352z"
     id="path1"
     style="fill:#ffffff;stroke:none" />
</svg>
