<?xml version="1.0" encoding="UTF-8" standalone="no"?>
<svg
   viewBox="0 0 640 640"
   version="1.1"
   id="svg1"
   sodipodi:docname="folder-plus-solid-full.svg"
   inkscape:export-filename="folder-plus-solid-full.png"
   inkscape:export-xdpi="96"
   inkscape:export-ydpi="96"
   inkscape:version="1.4 (86a8ad7, 2024-10-11)"
   xmlns:inkscape="http://www.inkscape.org/namespaces/inkscape"
   xmlns:sodipodi="http://sodipodi.sourceforge.net/DTD/sodipodi-0.dtd"
   xmlns="http://www.w3.org/2000/svg"
   xmlns:svg="http://www.w3.org/2000/svg">
  <defs
     id="defs1" />
  <sodipodi:namedview
     id="namedview1"
     pagecolor="#ffffff"
     bordercolor="#000000"
     borderopacity="0.25"
     inkscape:showpageshadow="2"
     inkscape:pageopacity="0.0"
     inkscape:pagecheckerboard="0"
     inkscape:deskcolor="#d1d1d1"
     inkscape:zoom="1.2734375"
     inkscape:cx="320.39264"
     inkscape:cy="320"
     inkscape:window-width="1920"
     inkscape:window-height="1017"
     inkscape:window-x="-8"
     inkscape:window-y="-8"
     inkscape:window-maximized="1"
     inkscape:current-layer="svg1" />
  <!--!Font Awesome Free 7.1.0 by @fontawesome - https://fontawesome.com License - https://fontawesome.com/license/free Copyright 2026 Fonticons, Inc.-->
  <path
     d="M576 448C576 483.3 547.3 512 512 512L128 512C92.7 512 64 483.3 64 448L64 160C64 124.7 92.7 96 128 96L266.7 96C280.5 96 294 100.5 305.1 108.8L343.5 137.6C349 141.8 355.8 144 362.7 144L512 144C547.3 144 576 172.7 576 208L576 448zM320 224C306.7 224 296 234.7 296 248L296 296L248 296C234.7 296 224 306.7 224 320C224 333.3 234.7 344 248 344L296 344L296 392C296 405.3 306.7 416 320 416C333.3 416 344 405.3 344 392L344 344L392 344C405.3 344 416 333.3 416 320C416 306.7 405.3 296 392 296L344 296L344 248C344 234.7 333.3 224 320 224z"
     id="path1"
     style="fill:#ffffff;stroke:none" />
</svg>
