<?xml version="1.0" encoding="UTF-8" standalone="no"?>
<svg
   viewBox="0 0 640 640"
   version="1.1"
   id="svg1"
   sodipodi:docname="redo-arrow-solid-full.svg"
   inkscape:version="1.4 (86a8ad7, 2024-10-11)"
   inkscape:export-filename="redo-arrow-solid-full.png"
   inkscape:export-xdpi="96"
   inkscape:export-ydpi="96"
   xmlns:inkscape="http://www.inkscape.org/namespaces/inkscape"
   xmlns:sodipodi="http://sodipodi.sourceforge.net/DTD/sodipodi-0.dtd"
   xmlns="http://www.w3.org/2000/svg"
   xmlns:svg="http://www.w3.org/2000/svg">
  <defs
     id="defs1" />
  <sodipodi:namedview
     id="namedview1"
     pagecolor="#ffffff"
     bordercolor="#000000"
     borderopacity="0.25"
     inkscape:showpageshadow="2"
     inkscape:pageopacity="0.0"
     inkscape:pagecheckerboard="0"
     inkscape:deskcolor="#d1d1d1"
     inkscape:zoom="0.90045629"
     inkscape:cx="377.58635"
     inkscape:cy="293.73997"
     inkscape:window-width="1920"
     inkscape:window-height="1017"
     inkscape:window-x="-8"
     inkscape:window-y="-8"
     inkscape:window-maximized="1"
     inkscape:current-layer="svg1" />
  <!--!Font Awesome Free 7.1.0 by @fontawesome - https://fontawesome.com License - https://fontawesome.com/license/free Copyright 2026 Fonticons, Inc.-->
  <path
     id="path1"
     d="M 270.09049,197.34054 C 145.29957,230.02426 66.251428,349.34537 80.571219,473.88068 c 2.015415,17.56241 17.824497,30.16749 35.386911,28.15207 17.56241,-2.01542 30.14403,-17.92173 28.15396,-35.38741 -10.722,-93.432 48.64876,-182.8929 142.19358,-207.39305 42.9513,-11.24928 86.21993,-7.07494 124.06957,9.16528 l -33.34367,57.00732 c -4.92667,8.42306 -4.25121,18.89276 1.60833,26.66166 5.85953,7.7689 15.84135,11.15102 25.22485,8.6934 l 131.65887,-34.48251 7.64262,-2.00166 c 12.86603,-3.36972 20.50594,-16.43158 17.13622,-29.29761 L 523.81827,155.69668 c -2.45761,-9.38352 -10.29851,-16.42592 -19.94228,-17.72494 -9.64381,-1.29901 -19.07511,3.34115 -24.0271,11.66748 L 442.9609,212.84845 C 390.80795,188.56986 330.06751,181.63205 270.09049,197.34054 Z"
     style="fill:#ffffff;fill-opacity:1;stroke:none;stroke-width:0;stroke-dasharray:none" />
</svg>
